<svg width="62" height="111" viewBox="0 0 62 111" fill="none" xmlns="http://www.w3.org/2000/svg">
<path fill-rule="evenodd" clip-rule="evenodd" d="M54.519 0.0733878C55.7587 0.0207238 57.019 -0.00388642 58.2999 0.000497539L58.2954 1.17461C57.0345 1.17029 55.7946 1.19452 54.5756 1.2463L54.519 0.0733878ZM39.8085 2.19978C42.1387 1.59795 44.5693 1.11162 47.0999 0.750785L47.288 1.91157C44.8049 2.26563 42.4225 2.74246 40.1407 3.33178L39.8085 2.19978ZM47.0971 102.527C44.5635 102.163 42.1323 101.68 39.8035 101.086L40.132 99.9528C42.4138 100.535 44.7985 101.009 47.2863 101.366L47.0971 102.527ZM26.0599 7.64835C28.1651 6.47326 30.3967 5.41394 32.754 4.48444L33.239 5.56683C30.9348 6.47538 28.7551 7.51021 26.6999 8.65736L26.0599 7.64835ZM32.7496 98.8374C30.3803 97.9199 28.1402 96.8759 26.0293 95.7189L26.6607 94.7051C28.7217 95.8348 30.9103 96.855 33.2272 97.7521L32.7496 98.8374ZM14.4679 16.4589C16.1412 14.7559 17.9597 13.1501 19.9229 11.6587L20.7105 12.5711C18.7952 14.0262 17.0209 15.5929 15.3882 17.2546L14.4679 16.4589ZM19.8542 91.7514C17.8767 90.2722 16.0486 88.6794 14.3694 86.9899L15.2848 86.1893C16.9225 87.837 18.7056 89.3905 20.6345 90.8334L19.8542 91.7514ZM6.01599 28.0024C7.12354 25.9142 8.38609 23.8913 9.80323 21.9527L10.8355 22.6167C9.4519 24.5094 8.21873 26.485 7.13656 28.5254L6.01599 28.0024ZM9.67653 81.5104C8.25235 79.5727 6.98792 77.5501 5.88265 75.4616L7.00372 74.9395C8.08304 76.979 9.31731 78.9532 10.707 80.8439L9.67653 81.5104ZM1.2138 41.2599C1.69937 38.9663 2.34315 36.701 3.1447 34.4831L4.33005 34.8601C3.54626 37.0288 2.91651 39.2446 2.44143 41.4886L1.2138 41.2599ZM3.02832 68.974C2.23608 66.753 1.60501 64.4842 1.13444 62.1867L2.36357 61.9651C2.82383 64.2123 3.44093 66.4307 4.21524 68.6014L3.02832 68.974ZM0.203538 55.2268C0.0534033 52.8922 0.0629516 50.5479 0.231641 48.2131L1.48039 48.2925C1.31531 50.5775 1.30597 52.8716 1.45288 55.1561L0.203538 55.2268Z" fill="#1976D2"/>
<path d="M49.5363 96.3018L60.3716 103.344L49.5363 109.511" stroke="#1976D2" stroke-width="1.45435"/>
</svg>
