<svg width="14" height="14" viewBox="0 0 14 14" fill="none" xmlns="http://www.w3.org/2000/svg">
<path d="M4.00399 10.1236L5.23669 9.76805L12.6588 2.25749C12.7173 2.1975 12.7499 2.11689 12.7495 2.03307C12.7491 1.94925 12.7158 1.86895 12.6567 1.80951L12.2122 1.36014C12.1835 1.33063 12.1491 1.30713 12.1112 1.29102C12.0733 1.27492 12.0326 1.26652 11.9914 1.26632C11.9502 1.26613 11.9094 1.27414 11.8714 1.28989C11.8333 1.30563 11.7988 1.3288 11.7698 1.35804L4.36729 8.849L4.00329 10.1229L4.00399 10.1236ZM13.0921 0.469792L13.5366 0.919866C14.1498 1.54073 14.1554 2.54237 13.5478 3.15693L5.89959 10.8971L3.2648 11.6558C3.10393 11.7009 2.93178 11.6802 2.78611 11.5985C2.64044 11.5167 2.53315 11.3805 2.4878 11.2198C2.45404 11.1042 2.45356 10.9814 2.4864 10.8656L3.25289 8.17774L10.8808 0.457893C11.0258 0.311852 11.1985 0.196151 11.3887 0.117539C11.579 0.0389272 11.7829 -0.00102258 11.9888 1.98878e-05C12.1946 0.00106235 12.3982 0.0430762 12.5876 0.123611C12.777 0.204146 12.9485 0.321589 13.0921 0.469092V0.469792ZM5.02879 1.27684C5.37599 1.27684 5.65739 1.56173 5.65739 1.91311C5.65794 1.99617 5.64212 2.07853 5.61082 2.15547C5.57952 2.23241 5.53336 2.30243 5.47498 2.36152C5.4166 2.42062 5.34714 2.46762 5.27058 2.49985C5.19402 2.53209 5.11186 2.54891 5.02879 2.54937H2.5144C1.82 2.54937 1.2572 3.11914 1.2572 3.8212V11.4549C1.2572 12.1577 1.82 12.7275 2.5144 12.7275H10.0576C10.752 12.7275 11.3155 12.1577 11.3155 11.4549V8.9106C11.3155 8.55922 11.5969 8.27433 11.9441 8.27433C12.2913 8.27433 12.5727 8.55922 12.5727 8.9113V11.4549C12.5727 12.8605 11.4464 14 10.0576 14H2.5144C1.1256 14 0 12.8605 0 11.4549V3.8212C0 2.41638 1.1256 1.27684 2.5144 1.27684H5.02879Z" fill="#333333"/>
</svg>
