<svg width="30" height="30" viewBox="0 0 30 30" fill="none" xmlns="http://www.w3.org/2000/svg">
<path d="M8.57999 21.6935L11.2215 20.9315L27.126 4.83747C27.2514 4.70892 27.3213 4.53619 27.3204 4.35658C27.3196 4.17697 27.2481 4.0049 27.1215 3.87753L26.169 2.91459C26.1074 2.85134 26.0339 2.801 25.9527 2.76648C25.8714 2.73196 25.7842 2.71397 25.6959 2.71355C25.6077 2.71313 25.5202 2.7303 25.4387 2.76404C25.3571 2.79778 25.2831 2.84743 25.221 2.91009L9.35849 18.9621L8.57849 21.692L8.57999 21.6935ZM28.0545 1.0067L29.007 1.97114C30.321 3.30156 30.333 5.44794 29.031 6.76486L12.642 23.3509L6.99599 24.9768C6.65128 25.0733 6.28238 25.0291 5.97023 24.8539C5.65809 24.6787 5.42819 24.3868 5.33099 24.0423C5.25867 23.7947 5.25763 23.5316 5.32799 23.2834L6.97049 17.5237L23.316 0.981199C23.6268 0.668254 23.9968 0.420324 24.4044 0.25187C24.8121 0.0834154 25.2492 -0.00219124 25.6902 4.26168e-05C26.1313 0.00227647 26.5675 0.0923061 26.9734 0.264881C27.3793 0.437455 27.7468 0.68912 28.0545 1.0052V1.0067ZM10.776 2.7361C11.52 2.7361 12.123 3.34656 12.123 4.09952C12.1242 4.27751 12.0903 4.45399 12.0232 4.61886C11.9561 4.78374 11.8572 4.93378 11.7321 5.06041C11.607 5.18703 11.4582 5.28776 11.2941 5.35683C11.1301 5.4259 10.954 5.46195 10.776 5.46294H5.38799C3.89999 5.46294 2.694 6.68386 2.694 8.18828V24.5463C2.694 26.0522 3.89999 27.2732 5.38799 27.2732H21.552C23.04 27.2732 24.2475 26.0522 24.2475 24.5463V19.0941C24.2475 18.3412 24.8505 17.7307 25.5945 17.7307C26.3385 17.7307 26.9415 18.3412 26.9415 19.0956V24.5463C26.9415 27.5581 24.528 30 21.552 30H5.38799C2.412 30 0 27.5581 0 24.5463V8.18828C0 5.17795 2.412 2.7361 5.38799 2.7361H10.776Z" fill="white"/>
</svg>
