<svg width="25" height="26" viewBox="0 0 25 26" fill="none" xmlns="http://www.w3.org/2000/svg">
<path d="M12.7465 25.7252C12.6638 25.7252 12.581 25.7252 12.4976 25.7248C10.5379 25.7297 8.72722 25.679 6.96628 25.5699C5.35184 25.4699 3.87817 24.902 2.70434 23.9277C1.57172 22.9875 0.798256 21.7163 0.405518 20.1498C0.0637079 18.786 0.0455874 17.4472 0.0282298 16.1524C0.0156408 15.2233 0.00267039 14.1224 0 13.0028C0.00267039 11.8786 0.0156408 10.7777 0.0282298 9.84866C0.0455874 8.55397 0.0637079 7.21521 0.405518 5.85122C0.798256 4.2847 1.57172 3.01351 2.70434 2.07337C3.87817 1.09906 5.35184 0.531133 6.96648 0.431138C8.72741 0.322213 10.5385 0.271342 12.5024 0.276196C14.4626 0.271924 16.2728 0.322213 18.0337 0.431138C19.6482 0.531133 21.1218 1.09906 22.2957 2.07337C23.4285 3.01351 24.2017 4.2847 24.5945 5.85122C24.9363 7.21502 24.9544 8.55397 24.9718 9.84866C24.9844 10.7777 24.9975 11.8786 25 12.9982C24.9975 14.1224 24.9844 15.2233 24.9718 16.1524C24.9645 16.7015 24.5189 17.1403 23.982 17.1329C23.4426 17.1253 23.0115 16.6741 23.0188 16.1252C23.0312 15.2016 23.0443 14.1078 23.0468 12.9982C23.0443 11.8932 23.0312 10.7995 23.0188 9.87584C23.0029 8.69707 22.9865 7.47811 22.7019 6.34284C22.4149 5.19766 21.8629 4.27965 21.0614 3.61426C20.1944 2.89449 19.1358 2.49121 17.9151 2.41568C16.1955 2.30928 14.4254 2.26016 12.5024 2.26424C10.5747 2.25958 8.80447 2.30928 7.08493 2.41568C5.86418 2.49121 4.80575 2.89449 3.93863 3.61406C3.13714 4.27946 2.58513 5.19747 2.29806 6.34284C2.01347 7.47811 1.99707 8.69707 1.98124 9.87584C1.96884 10.7995 1.95587 11.8932 1.9532 13.0028C1.95587 14.1078 1.96884 15.2016 1.98124 16.1252C1.99707 17.304 2.01347 18.5229 2.29806 19.6582C2.58513 20.8034 3.13714 21.7214 3.93863 22.3868C4.80575 23.1065 5.86418 23.5098 7.08493 23.5853C8.80447 23.6917 10.5751 23.7414 12.4978 23.7366C14.4256 23.7413 16.1955 23.6917 17.9151 23.5853C19.1358 23.5098 20.1943 23.1065 21.0614 22.3868C21.6387 21.9074 22.0898 21.2923 22.4021 20.5583C22.6165 20.0547 23.1914 19.823 23.6864 20.0413C24.1813 20.2595 24.4087 20.8447 24.1945 21.3486C23.7567 22.3775 23.1179 23.2452 22.2957 23.9277C21.1218 24.9022 19.6482 25.4699 18.0337 25.5699C16.3474 25.6743 14.615 25.7252 12.7465 25.7252ZM18.5548 13.0005C18.5548 9.5745 15.8167 6.78728 12.4511 6.78728C9.08562 6.78728 6.34733 9.5745 6.34733 13.0005C6.34733 16.4265 9.08562 19.2137 12.4511 19.2137C15.8167 19.2137 18.5548 16.4265 18.5548 13.0005ZM16.6016 13.0005C16.6016 15.3301 14.7398 17.2255 12.4511 17.2255C10.1625 17.2255 8.30053 15.3301 8.30053 13.0005C8.30053 10.6709 10.1625 8.77551 12.4511 8.77551C14.7398 8.77551 16.6016 10.6709 16.6016 13.0005ZM19.2384 4.79904C18.4295 4.79904 17.7735 5.46658 17.7735 6.29022C17.7735 7.11386 18.4295 7.7814 19.2384 7.7814C20.0476 7.7814 20.7033 7.11386 20.7033 6.29022C20.7033 5.46658 20.0476 4.79904 19.2384 4.79904Z" fill="url(#paint0_linear_66_117)"/>
<defs>
<linearGradient id="paint0_linear_66_117" x1="-0.0432061" y1="13.0006" x2="30.7077" y2="13.0006" gradientUnits="userSpaceOnUse">
<stop stop-color="#0AD2CA"/>
<stop offset="1" stop-color="#16F09B"/>
</linearGradient>
</defs>
</svg>
