<svg width="25" height="25" viewBox="0 0 25 25" fill="none" xmlns="http://www.w3.org/2000/svg">
<path d="M12.7465 25C12.6638 25 12.581 25 12.4976 24.9996C10.5379 25.0044 8.72722 24.9546 6.96628 24.8474C5.35184 24.7492 3.87817 24.1913 2.70434 23.2342C1.57172 22.3106 0.798256 21.0619 0.405518 19.523C0.0637079 18.1833 0.0455874 16.8682 0.0282298 15.5962C0.0156408 14.6835 0.00267039 13.602 0 12.5023C0.00267039 11.3979 0.0156408 10.3164 0.0282298 9.40376C0.0455874 8.13193 0.0637079 6.81681 0.405518 5.4769C0.798256 3.93804 1.57172 2.6893 2.70434 1.76576C3.87817 0.808648 5.35184 0.250747 6.96648 0.152518C8.72741 0.0455156 10.5385 -0.00445705 12.5024 0.000311335C14.4626 -0.00388484 16.2728 0.0455156 18.0337 0.152518C19.6482 0.250747 21.1218 0.808648 22.2957 1.76576C23.4285 2.6893 24.2017 3.93804 24.5945 5.4769C24.9363 6.81662 24.9544 8.13193 24.9718 9.40376C24.9844 10.3164 24.9975 11.3979 25 12.4977C24.9975 13.602 24.9844 14.6835 24.9718 15.5962C24.9645 16.1356 24.5189 16.5666 23.982 16.5594C23.4426 16.5519 23.0115 16.1087 23.0188 15.5695C23.0312 14.6621 23.0443 13.5877 23.0468 12.4977C23.0443 11.4122 23.0312 10.3378 23.0188 9.43046C23.0029 8.27251 22.9865 7.07507 22.7019 5.95984C22.4149 4.83488 21.8629 3.93308 21.0614 3.27943C20.1944 2.57238 19.1358 2.17622 17.9151 2.10202C16.1955 1.9975 14.4254 1.94925 12.5024 1.95325C10.5747 1.94867 8.80447 1.9975 7.08493 2.10202C5.86418 2.17622 4.80575 2.57238 3.93863 3.27924C3.13714 3.93289 2.58513 4.83469 2.29806 5.95984C2.01347 7.07507 1.99707 8.27251 1.98124 9.43046C1.96884 10.3378 1.95587 11.4122 1.9532 12.5023C1.95587 13.5877 1.96884 14.6621 1.98124 15.5695C1.99707 16.7274 2.01347 17.9249 2.29806 19.0401C2.58513 20.165 3.13714 21.0668 3.93863 21.7205C4.80575 22.4276 5.86418 22.8237 7.08493 22.8979C8.80447 23.0024 10.5751 23.0513 12.4978 23.0465C14.4256 23.0511 16.1955 23.0024 17.9151 22.8979C19.1358 22.8237 20.1943 22.4276 21.0614 21.7205C21.6387 21.2496 22.0898 20.6453 22.4021 19.9243C22.6165 19.4296 23.1914 19.202 23.6864 19.4164C24.1813 19.6308 24.4087 20.2057 24.1945 20.7006C23.7567 21.7113 23.1179 22.5637 22.2957 23.2342C21.1218 24.1915 19.6482 24.7492 18.0337 24.8474C16.3474 24.95 14.615 25 12.7465 25ZM18.5548 12.5C18.5548 9.13444 15.8167 6.39643 12.4511 6.39643C9.08562 6.39643 6.34733 9.13444 6.34733 12.5C6.34733 15.8655 9.08562 18.6035 12.4511 18.6035C15.8167 18.6035 18.5548 15.8655 18.5548 12.5ZM16.6016 12.5C16.6016 14.7884 14.7398 16.6504 12.4511 16.6504C10.1625 16.6504 8.30053 14.7884 8.30053 12.5C8.30053 10.2115 10.1625 8.34956 12.4511 8.34956C14.7398 8.34956 16.6016 10.2115 16.6016 12.5ZM19.2384 4.4433C18.4295 4.4433 17.7735 5.09905 17.7735 5.90815C17.7735 6.71725 18.4295 7.373 19.2384 7.373C20.0476 7.373 20.7033 6.71725 20.7033 5.90815C20.7033 5.09905 20.0476 4.4433 19.2384 4.4433Z" fill="white"/>
</svg>
