<svg width="27" height="28" viewBox="0 0 27 28" fill="none" xmlns="http://www.w3.org/2000/svg">
<path d="M20.7686 17.3955C20.256 16.8313 19.6378 16.5297 18.9825 16.5297C18.3326 16.5297 17.7091 16.8257 17.1754 17.3899L15.5056 19.1495C15.3682 19.0713 15.2308 18.9987 15.0987 18.9261C14.9085 18.8255 14.7288 18.7306 14.5756 18.63C13.0115 17.5798 11.59 16.2113 10.2267 14.4405C9.5662 13.5579 9.12233 12.8149 8.8 12.0608C9.2333 11.6419 9.6349 11.2062 10.0259 10.7872C10.1739 10.6308 10.3218 10.4688 10.4698 10.3124C11.5795 9.13931 11.5795 7.6199 10.4698 6.44683L9.02722 4.92184C8.86341 4.74867 8.69432 4.56992 8.53579 4.39116C8.21875 4.04483 7.88584 3.68732 7.54238 3.35216C7.02981 2.81589 6.41685 2.53101 5.77219 2.53101C5.12752 2.53101 4.50399 2.81589 3.97558 3.35216C3.97029 3.35774 3.9703 3.35774 3.96501 3.36333L2.1684 5.27935C1.49203 5.99436 1.10629 6.86579 1.02174 7.87686C0.894924 9.50799 1.34936 11.0274 1.69811 12.0217C2.55414 14.4628 3.83291 16.7252 5.74048 19.1495C8.05494 22.071 10.8397 24.3781 14.0207 26.0036C15.2361 26.6125 16.8583 27.3331 18.6708 27.456C18.7817 27.4616 18.898 27.4672 19.0037 27.4672C20.2243 27.4672 21.2494 27.0035 22.0526 26.0818C22.0579 26.0707 22.0685 26.0651 22.0738 26.0539C22.3485 25.702 22.6656 25.3836 22.9985 25.0428C23.2257 24.8138 23.4582 24.5736 23.6854 24.3222C24.2086 23.7468 24.4833 23.0765 24.4833 22.3894C24.4833 21.6968 24.2033 21.032 23.6696 20.4734L20.7686 17.3955ZM22.6603 23.2776C22.655 23.2776 22.655 23.2832 22.6603 23.2776C22.4542 23.5122 22.2429 23.7245 22.0156 23.9591C21.6722 24.3055 21.3234 24.6685 20.9958 25.0763C20.4621 25.6796 19.8333 25.9645 19.009 25.9645C18.9297 25.9645 18.8452 25.9645 18.7659 25.9589C17.1965 25.8528 15.7381 25.2048 14.6443 24.6518C11.6534 23.1212 9.02722 20.9482 6.84487 18.1943C5.04298 15.8984 3.83819 13.7757 3.04029 11.4966C2.54886 10.1057 2.3692 9.022 2.44846 7.99976C2.5013 7.34619 2.73909 6.80434 3.17767 6.3407L4.97957 4.43585C5.23849 4.17889 5.51326 4.03924 5.78276 4.03924C6.11566 4.03924 6.38515 4.25151 6.55424 4.43027C6.55953 4.43585 6.56481 4.44144 6.57009 4.44702C6.89243 4.76543 7.19891 5.09501 7.52124 5.44693C7.68505 5.62568 7.85414 5.80444 8.02323 5.98878L9.4658 7.51377C10.0259 8.10589 10.0259 8.65332 9.4658 9.24545C9.31256 9.40744 9.16461 9.56944 9.01137 9.72585C8.5675 10.2062 8.14477 10.6531 7.68505 11.0888C7.67448 11.1 7.66391 11.1056 7.65863 11.1168C7.20419 11.5972 7.28874 12.0664 7.38385 12.3848C7.38914 12.4016 7.39442 12.4183 7.3997 12.4351C7.77488 13.3959 8.30329 14.3008 9.10648 15.3789L9.11177 15.3845C10.5702 17.2838 12.1079 18.7641 13.8041 19.8981C14.0207 20.0433 14.2427 20.1606 14.454 20.2723C14.6443 20.3729 14.8239 20.4678 14.9772 20.5684C14.9983 20.5796 15.0194 20.5963 15.0406 20.6075C15.2202 20.7024 15.3893 20.7471 15.5637 20.7471C16.0023 20.7471 16.2771 20.4567 16.3669 20.3617L18.1741 18.4513C18.3537 18.2613 18.6391 18.0323 18.972 18.0323C19.2996 18.0323 19.5691 18.2502 19.7329 18.4401C19.7382 18.4457 19.7382 18.4457 19.7435 18.4513L22.655 21.5292C23.1993 22.099 23.1993 22.6855 22.6603 23.2776Z" fill="url(#paint0_linear_66_118)" stroke="url(#paint1_linear_66_118)" stroke-width="0.404961"/>
<path d="M14.512 7.2958C15.8964 7.54158 17.154 8.23425 18.158 9.29561C19.162 10.357 19.812 11.6864 20.0497 13.15C20.1079 13.5187 20.4091 13.7756 20.7525 13.7756C20.7948 13.7756 20.8318 13.77 20.8741 13.7645C21.2651 13.6974 21.524 13.3064 21.4606 12.893C21.1753 11.1223 20.3826 9.50788 19.1726 8.22867C17.9625 6.94946 16.4354 6.11155 14.7603 5.8099C14.3693 5.74287 14.0047 6.01659 13.936 6.42437C13.8673 6.83215 14.121 7.22876 14.512 7.2958Z" fill="url(#paint2_linear_66_118)" stroke="url(#paint3_linear_66_118)" stroke-width="0.404961"/>
<path d="M25.9891 12.6751C25.5188 9.75919 24.2189 7.10584 22.2215 4.99432C20.2241 2.88281 17.7141 1.50865 14.9558 1.0115C14.57 0.938879 14.2054 1.21818 14.1367 1.62596C14.0733 2.03932 14.3323 2.42476 14.7233 2.49738C17.1857 2.93867 19.4314 4.17318 21.2175 6.05567C23.0035 7.94374 24.166 10.3178 24.5835 12.9209C24.6416 13.2896 24.9428 13.5465 25.2863 13.5465C25.3285 13.5465 25.3655 13.5409 25.4078 13.5353C25.7936 13.4739 26.0578 13.0829 25.9891 12.6751Z" fill="url(#paint4_linear_66_118)" stroke="url(#paint5_linear_66_118)" stroke-width="0.404961"/>
<defs>
<linearGradient id="paint0_linear_66_118" x1="0.959415" y1="14.9991" x2="29.8448" y2="14.9991" gradientUnits="userSpaceOnUse">
<stop stop-color="#0AD2CA"/>
<stop offset="1" stop-color="#16F09B"/>
</linearGradient>
<linearGradient id="paint1_linear_66_118" x1="0.959415" y1="14.9991" x2="29.8448" y2="14.9991" gradientUnits="userSpaceOnUse">
<stop stop-color="#0AD2CA"/>
<stop offset="1" stop-color="#16F09B"/>
</linearGradient>
<linearGradient id="paint2_linear_66_118" x1="13.9118" y1="9.78772" x2="23.1928" y2="9.78772" gradientUnits="userSpaceOnUse">
<stop stop-color="#0AD2CA"/>
<stop offset="1" stop-color="#16F09B"/>
</linearGradient>
<linearGradient id="paint3_linear_66_118" x1="13.9118" y1="9.78772" x2="23.1928" y2="9.78772" gradientUnits="userSpaceOnUse">
<stop stop-color="#0AD2CA"/>
<stop offset="1" stop-color="#16F09B"/>
</linearGradient>
<linearGradient id="paint4_linear_66_118" x1="14.1067" y1="7.27326" x2="28.7106" y2="7.27326" gradientUnits="userSpaceOnUse">
<stop stop-color="#0AD2CA"/>
<stop offset="1" stop-color="#16F09B"/>
</linearGradient>
<linearGradient id="paint5_linear_66_118" x1="14.1067" y1="7.27326" x2="28.7106" y2="7.27326" gradientUnits="userSpaceOnUse">
<stop stop-color="#0AD2CA"/>
<stop offset="1" stop-color="#16F09B"/>
</linearGradient>
</defs>
</svg>
