<svg width="31" height="30" viewBox="0 0 31 30" fill="none" xmlns="http://www.w3.org/2000/svg">
<path d="M30.6093 27.8618L21.7149 19.2411C23.4684 17.2044 24.523 14.6016 24.523 11.7588C24.523 5.27331 19.0276 0 12.2679 0C5.50815 0 0 5.27946 0 11.7649C0 18.2504 5.49544 23.5237 12.2551 23.5237C15.1268 23.5237 17.7696 22.57 19.8662 20.9763L28.7923 29.6216C29.3133 30.1261 30.0883 30.1261 30.6093 29.6216C31.1302 29.117 31.1302 28.3663 30.6093 27.8618ZM2.60478 11.7649C2.60478 6.67008 6.9376 2.52897 12.2551 2.52897C17.5727 2.52897 21.9055 6.67008 21.9055 11.7649C21.9055 16.8598 17.5727 21.0009 12.2551 21.0009C6.9376 21.0009 2.60478 16.8537 2.60478 11.7649Z" fill="white"/>
</svg>
