<svg width="82" height="82" viewBox="0 0 82 82" fill="none" xmlns="http://www.w3.org/2000/svg">
<circle cx="41" cy="41" r="41" fill="white"/>
<path d="M41.7371 39.9174C47.6155 39.9174 52.3814 34.3394 52.3814 27.4586C52.3814 17.9169 47.6157 15 41.7371 15C35.8582 15 31.0928 17.9169 31.0928 27.4586C31.0929 34.3394 35.8584 39.9174 41.7371 39.9174Z" fill="url(#paint0_linear_304_2)"/>
<path d="M65.2421 58.255L59.8719 46.1576C59.6263 45.6041 59.1948 45.1449 58.6577 44.8653L50.3235 40.5268C50.1397 40.4313 49.9172 40.4499 49.7519 40.575C47.3947 42.3579 44.6232 43.3002 41.7372 43.3002C38.8508 43.3002 36.0795 42.3579 33.7223 40.575C33.5566 40.4499 33.3341 40.4313 33.1503 40.5268L24.8167 44.8653C24.2793 45.1449 23.8483 45.6038 23.6024 46.1576L18.2322 58.255C17.862 59.089 17.9379 60.0432 18.4353 60.8081C18.9325 61.573 19.7739 62.0294 20.6862 62.0294H62.7879C63.7003 62.0294 64.5419 61.5728 65.0391 60.808C65.5363 60.0432 65.6124 59.0886 65.2421 58.255Z" fill="url(#paint1_linear_304_2)"/>
<defs>
<linearGradient id="paint0_linear_304_2" x1="31.3553" y1="15" x2="57.4933" y2="22.8104" gradientUnits="userSpaceOnUse">
<stop stop-color="#16F09B"/>
<stop offset="1" stop-color="#09D1CA"/>
</linearGradient>
<linearGradient id="paint1_linear_304_2" x1="18.5855" y1="40.4663" x2="58.4446" y2="71.1587" gradientUnits="userSpaceOnUse">
<stop stop-color="#16F09B"/>
<stop offset="1" stop-color="#09D1CA"/>
</linearGradient>
</defs>
</svg>
