<svg width="139" height="23" viewBox="0 0 139 23" fill="none" xmlns="http://www.w3.org/2000/svg">
<path d="M11.387 0L13.9435 7.86823H22.2167L15.5236 12.7311L18.0801 20.5993L11.387 15.7365L4.69389 20.5993L7.25043 12.7311L0.55732 7.86823H8.83046L11.387 0Z" fill="white"/>
<path d="M40.4434 0L42.9999 7.86823H51.2731L44.58 12.7311L47.1365 20.5993L40.4434 15.7365L33.7503 20.5993L36.3068 12.7311L29.6137 7.86823H37.8869L40.4434 0Z" fill="white"/>
<path d="M69.5 0L72.0566 7.86823H80.3297L73.6366 12.7311L76.1932 20.5993L69.5 15.7365L62.8069 20.5993L65.3635 12.7311L58.6704 7.86823H66.9435L69.5 0Z" fill="white"/>
<path d="M98.5564 0L101.113 7.86823H109.386L102.693 12.7311L105.25 20.5993L98.5564 15.7365L91.8633 20.5993L94.4199 12.7311L87.7268 7.86823H95.9999L98.5564 0Z" fill="white"/>
<path d="M127.613 1.61804L129.694 8.02274L129.806 8.36823H130.17H136.904L131.456 12.3266L131.162 12.5401L131.274 12.8856L133.355 19.2903L127.907 15.3319L127.613 15.1184L127.319 15.3319L121.871 19.2903L123.952 12.8856L124.064 12.5401L123.77 12.3266L118.322 8.36823H125.057H125.42L125.532 8.02274L127.613 1.61804Z" stroke="white"/>
</svg>
