<svg width="36" height="36" viewBox="0 0 36 36" fill="none" xmlns="http://www.w3.org/2000/svg">
<path d="M18 0C8.0748 0 0 8.0748 0 18C0 27.9252 8.0748 36 18 36C27.9252 36 36 27.9252 36 18C36 8.0748 27.9252 0 18 0ZM18 32.7273C9.87927 32.7273 3.27273 26.1206 3.27273 18C3.27273 9.87938 9.87927 3.27273 18 3.27273C26.1207 3.27273 32.7273 9.87938 32.7273 18C32.7273 26.1206 26.1206 32.7273 18 32.7273Z" fill="url(#paint0_linear_373_32)"/>
<path d="M24.7498 11.637L15.493 20.8936L11.2505 16.651C10.6115 16.012 9.57538 16.0119 8.93632 16.6509C8.29727 17.2899 8.29727 18.326 8.93632 18.965L14.3359 24.3648C14.6428 24.6717 15.0589 24.8442 15.4929 24.8442C15.493 24.8442 15.4929 24.8442 15.493 24.8442C15.927 24.8442 16.3432 24.6717 16.65 24.3649L27.064 13.9512C27.703 13.3122 27.703 12.2761 27.064 11.6371C26.4249 10.998 25.3889 10.9979 24.7498 11.637Z" fill="url(#paint1_linear_373_32)"/>
<defs>
<linearGradient id="paint0_linear_373_32" x1="-0.0622168" y1="18" x2="44.2192" y2="18" gradientUnits="userSpaceOnUse">
<stop stop-color="#0AD2CA"/>
<stop offset="1" stop-color="#16F09B"/>
</linearGradient>
<linearGradient id="paint1_linear_373_32" x1="8.42405" y1="18.0009" x2="31.9008" y2="18.0009" gradientUnits="userSpaceOnUse">
<stop stop-color="#0AD2CA"/>
<stop offset="1" stop-color="#16F09B"/>
</linearGradient>
</defs>
</svg>
