<svg width="34" height="34" viewBox="0 0 34 34" fill="none" xmlns="http://www.w3.org/2000/svg">
<path d="M6.34882 16.6058L11.4371 18.5048L13.4066 24.8387C13.5326 25.2441 14.0287 25.3941 14.3578 25.1249L17.1942 22.8128C17.4914 22.5704 17.915 22.5585 18.2255 22.7839L23.3413 26.4981C23.6934 26.754 24.1925 26.5611 24.2808 26.1355L28.0283 8.10947C28.1247 7.64454 27.6681 7.25673 27.2254 7.428L6.34293 15.4839C5.82753 15.6825 5.83195 16.4121 6.34882 16.6058ZM13.0892 17.494L23.0336 11.3693C23.2122 11.2596 23.3961 11.5012 23.2425 11.6436L15.0356 19.2723C14.7471 19.5407 14.561 19.9002 14.5083 20.2903L14.2289 22.3621C14.1917 22.6386 13.8033 22.666 13.7268 22.3983L12.6516 18.6204C12.5286 18.1895 12.708 17.7292 13.0892 17.494Z" fill="white"/>
</svg>
