<svg width="20" height="24" viewBox="0 0 20 24" fill="none" xmlns="http://www.w3.org/2000/svg">
<path d="M17.1329 11.63C16.7091 11.1299 13.2128 5.57065 13.0441 5.0754C12.8749 4.5792 13.1347 1.96662 13.127 1.18061C13.1194 0.395075 10.6436 -0.75606 9.98203 0.693464C9.58878 1.55431 8.29322 4.56776 8.42192 5.4267C8.55109 6.28517 8.85615 8.39582 9.16932 9.97786H1.86355C0.812032 9.97833 0.0827416 10.6256 0.00647591 11.6271C-0.0573966 12.4284 0.353485 13.3498 1.13854 13.8488C0.717177 14.2111 0.509353 14.7163 0.559402 15.3036C0.621845 16.0305 1.07372 16.7064 1.6848 17.0968C1.2906 17.4495 1.08707 17.9457 1.12949 18.5163C1.18144 19.2622 1.63713 19.9563 2.26108 20.3505C1.94648 20.6851 1.78251 21.1579 1.82494 21.688C1.91264 22.7509 2.84308 23.8282 4.4561 23.8282L15.9918 23.8329C16.5947 23.8329 17.1157 23.4969 17.5342 23.2271C17.7325 23.0984 18.0333 22.9049 18.1482 22.9049L20 22.9039V13.0523C20 13.0523 17.5571 12.1305 17.1329 11.63Z" fill="white"/>
</svg>
