<svg width="20" height="24" viewBox="0 0 20 24" fill="none" xmlns="http://www.w3.org/2000/svg">
<path d="M2.86711 12.203C3.29086 12.7031 6.78717 18.2624 6.95591 18.7576C7.12512 19.2538 6.86534 21.8664 6.87297 22.6524C6.8806 23.4379 9.35637 24.5891 10.018 23.1395C10.4112 22.2787 11.7068 19.2652 11.5781 18.4063C11.4489 17.5478 11.1438 15.4372 10.8307 13.8552L18.1365 13.8552C19.188 13.8547 19.9173 13.2074 19.9935 12.2059C20.0574 11.4046 19.6465 10.4833 18.8615 9.98419C19.2828 9.62193 19.4906 9.11667 19.4406 8.52942C19.3782 7.80252 18.9263 7.12661 18.3152 6.73623C18.7094 6.3835 18.9129 5.88729 18.8705 5.31673C18.8186 4.57076 18.3629 3.87674 17.7389 3.48254C18.0535 3.14793 18.2175 2.67508 18.1751 2.14503C18.0874 1.08208 17.1569 0.0048275 15.5439 0.0048275L4.00824 6.10352e-05C3.40526 6.10352e-05 2.88427 0.336107 2.46576 0.605896C2.26748 0.734594 1.9667 0.928118 1.85183 0.928118L0 0.929073L0 10.7807C0 10.7807 2.44288 11.7026 2.86711 12.203Z" fill="white"/>
</svg>
