<svg width="32" height="32" viewBox="0 0 32 32" fill="none" xmlns="http://www.w3.org/2000/svg">
<path d="M16 31C24.2843 31 31 24.2843 31 16C31 7.71573 24.2843 1 16 1C7.71573 1 1 7.71573 1 16C1 24.2843 7.71573 31 16 31Z" stroke="white" stroke-width="2"/>
<path d="M15.9997 18.5472C19.5947 18.5472 22.5091 15.6329 22.5091 12.0378C22.5091 8.44275 19.5947 5.52838 15.9997 5.52838C12.4046 5.52838 9.49023 8.44275 9.49023 12.0378C9.49023 15.6329 12.4046 18.5472 15.9997 18.5472Z" stroke="white" stroke-width="2"/>
<path d="M5.06567 26.2679C5.86775 24.0093 7.34958 22.0544 9.30757 20.6719C11.2656 19.2894 13.6036 18.5472 16.0005 18.5472C18.3973 18.5472 20.7354 19.2894 22.6934 20.6719C24.6514 22.0544 26.1332 24.0093 26.9353 26.2679" stroke="white" stroke-width="2"/>
</svg>
