<svg width="665" height="601" viewBox="0 0 665 601" fill="none" xmlns="http://www.w3.org/2000/svg">
<path fill-rule="evenodd" clip-rule="evenodd" d="M161.795 545.482C106.722 514.255 45.5338 484.669 19.3097 427.046C-7.73064 367.629 -4.89211 295.951 20.9527 236.005C45.1874 179.793 105.544 153.516 153.59 115.586C201.718 77.5918 242.25 29.1643 301.746 14.3331C370.471 -2.79848 448.103 -9.69279 508.637 27.0804C570.031 64.3764 592.539 139.422 618.142 206.539C644.059 274.479 680.142 346.877 656.916 415.783C633.977 483.837 563.168 521.194 500.351 556.002C446.142 586.04 386.347 601.96 324.401 600.035C265.824 598.215 212.775 574.388 161.795 545.482Z" fill="#CBF3EA"/>
</svg>
