<svg width="498" height="449" viewBox="0 0 498 449" fill="none" xmlns="http://www.w3.org/2000/svg">
<path fill-rule="evenodd" clip-rule="evenodd" d="M121.095 407.969C79.9033 384.613 34.1373 362.483 14.5229 319.384C-5.70202 274.943 -3.57894 221.331 15.7517 176.494C33.8782 134.45 79.0222 114.796 114.958 86.4265C150.955 58.0087 181.272 21.7872 225.772 10.6941C277.175 -2.1195 335.241 -7.27614 380.517 20.2285C426.437 48.1241 443.272 104.255 462.422 154.455C481.806 205.271 508.794 259.422 491.423 310.96C474.266 361.861 421.304 389.802 374.319 415.837C333.773 438.304 289.049 450.211 242.717 448.772C198.904 447.41 159.226 429.589 121.095 407.969Z" fill="url(#paint0_linear_30_8)"/>
<defs>
<linearGradient id="paint0_linear_30_8" x1="328.262" y1="550.977" x2="-30.3564" y2="70.6105" gradientUnits="userSpaceOnUse">
<stop stop-color="#16F09B"/>
<stop offset="1" stop-color="#09D1CA"/>
</linearGradient>
</defs>
</svg>
