<svg width="27" height="26" viewBox="0 0 27 26" fill="none" xmlns="http://www.w3.org/2000/svg">
<path d="M18.0945 14.9737C17.736 14.6084 17.3334 14.2837 16.8949 14.0065C18.6643 12.717 19.9043 10.8889 20.4034 8.83393C20.4403 8.68543 20.4456 8.53152 20.4191 8.38107C20.3926 8.23062 20.3348 8.08659 20.249 7.95728C20.1632 7.82796 20.0511 7.71591 19.9192 7.62757C19.7873 7.53923 19.6382 7.47635 19.4804 7.44254C19.3227 7.40873 19.1593 7.40466 18.9999 7.43057C18.8404 7.45648 18.688 7.51185 18.5513 7.5935C18.4147 7.67515 18.2965 7.78146 18.2036 7.90633C18.1107 8.03119 18.0449 8.17214 18.01 8.32106C17.7775 9.28231 17.3254 10.1842 16.6852 10.9638C16.0449 11.7435 15.232 12.3821 14.303 12.8352V8.57981C14.2954 8.49469 14.2774 8.41068 14.2494 8.32945C14.2412 8.26256 14.2271 8.19645 14.207 8.13183C14.1547 8.02663 14.0857 7.92954 14.0023 7.8439C13.9804 7.81933 13.9693 7.78693 13.9453 7.76419C13.8554 7.68596 13.7536 7.62083 13.6433 7.57094C13.612 7.5552 13.5887 7.52858 13.5558 7.51542C13.4618 7.48589 13.3644 7.467 13.2656 7.45914C13.2047 7.44233 13.1424 7.43026 13.0793 7.42306L12.2763 7.42071H12.2727C11.9856 7.41942 11.7072 7.5135 11.4864 7.68643C11.2655 7.85936 11.1164 8.10009 11.0651 8.36636C11.0138 8.63263 11.0637 8.90742 11.206 9.14248C11.3482 9.37753 11.5738 9.55785 11.8431 9.65175V15.3092C9.89824 13.4063 8.61045 10.9929 8.14926 8.38663C8.12235 8.23687 8.0644 8.09357 7.97873 7.96492C7.89306 7.83627 7.78135 7.72478 7.64997 7.63682C7.51859 7.54886 7.37011 7.48616 7.21302 7.45228C7.05593 7.41841 6.8933 7.41403 6.73441 7.4394C6.57553 7.46477 6.4235 7.51939 6.28701 7.60014C6.15052 7.68089 6.03224 7.78619 5.93892 7.91002C5.8456 8.03386 5.77908 8.17381 5.74314 8.32187C5.7072 8.46994 5.70256 8.62323 5.72947 8.77299C6.44668 12.8016 8.83004 16.3975 12.3566 18.7718C12.4069 18.8002 12.4593 18.8251 12.5135 18.8463C12.556 18.8698 12.6 18.8908 12.6454 18.909C12.7824 18.9606 12.9282 18.9884 13.0757 18.9909C13.2563 18.9888 13.434 18.9485 13.5959 18.8731C13.6081 18.8676 13.6221 18.8702 13.6342 18.8644C13.7427 18.8111 13.842 18.7428 13.9289 18.6616C13.9464 18.6456 13.9581 18.6259 13.9745 18.6089C14.0537 18.5269 14.1198 18.4345 14.1708 18.3346C14.1879 18.3014 14.2034 18.2697 14.2172 18.2348C14.2711 18.1072 14.3002 17.9715 14.303 17.8341L14.3036 15.3748C15.064 15.5852 15.7492 15.9871 16.2853 16.5372L18.3078 18.6158C18.4166 18.7281 18.5479 18.8191 18.694 18.8836C18.8402 18.948 18.9984 18.9847 19.1596 18.9914C19.3208 18.9982 19.4819 18.9749 19.6335 18.9228C19.7851 18.8708 19.9244 18.7912 20.0433 18.6883C20.1623 18.5855 20.2585 18.4616 20.3265 18.3237C20.3946 18.1858 20.4331 18.0366 20.4399 17.8846C20.4467 17.7327 20.4216 17.5809 20.3661 17.4381C20.3106 17.2953 20.2257 17.1642 20.1164 17.0523L18.0945 14.9737ZM17.2711 0.47998H9.74148C2.18488 0.47998 0 2.53712 0 9.64956V16.7473C0 23.8699 2.18188 25.9293 9.7289 25.9293H17.2585C24.8151 25.9293 27 23.8722 27 16.7597V9.66199C27 2.53938 24.8181 0.47998 17.2711 0.47998ZM24.5455 16.7597C24.5455 22.59 23.456 23.6157 17.2585 23.6157H9.7289C3.54219 23.6157 2.45455 22.5889 2.45455 16.7473V9.64956C2.45455 3.8193 3.544 2.79356 9.74148 2.79356H17.2711C23.4578 2.79356 24.5455 3.82044 24.5455 9.66199V16.7597Z" fill="url(#paint0_linear_66_116)"/>
<defs>
<linearGradient id="paint0_linear_66_116" x1="-0.0466626" y1="13.2047" x2="33.1644" y2="13.2047" gradientUnits="userSpaceOnUse">
<stop stop-color="#0AD2CA"/>
<stop offset="1" stop-color="#16F09B"/>
</linearGradient>
</defs>
</svg>
