<svg width="27" height="25" viewBox="0 0 27 25" fill="none" xmlns="http://www.w3.org/2000/svg">
<path d="M18.0945 14.2378C17.736 13.8789 17.3334 13.56 16.8949 13.2877C18.6643 12.021 19.9043 10.2251 20.4034 8.20645C20.4403 8.06057 20.4456 7.90938 20.4191 7.76159C20.3926 7.61379 20.3348 7.47231 20.249 7.34528C20.1632 7.21824 20.0511 7.10817 19.9192 7.02139C19.7873 6.93461 19.6382 6.87284 19.4804 6.83963C19.3227 6.80642 19.1593 6.80242 18.9999 6.82787C18.8404 6.85332 18.688 6.90771 18.5513 6.98792C18.4147 7.06813 18.2965 7.17257 18.2036 7.29522C18.1107 7.41788 18.0449 7.55634 18.01 7.70264C17.7775 8.64691 17.3254 9.53288 16.6852 10.2988C16.0449 11.0646 15.232 11.692 14.303 12.137V7.95682C14.2954 7.8732 14.2774 7.79067 14.2494 7.71088C14.2412 7.64517 14.2271 7.58023 14.207 7.51675C14.1547 7.4134 14.0857 7.31803 14.0023 7.2339C13.9804 7.20976 13.9693 7.17793 13.9453 7.1556C13.8554 7.07875 13.7536 7.01477 13.6433 6.96576C13.612 6.9503 13.5887 6.92415 13.5558 6.91122C13.4618 6.88221 13.3644 6.86365 13.2656 6.85593C13.2047 6.83942 13.1424 6.82756 13.0793 6.82049L12.2763 6.81818H12.2727C11.9856 6.81691 11.7072 6.90933 11.4864 7.07921C11.2655 7.24909 11.1164 7.48557 11.0651 7.74714C11.0138 8.0087 11.0637 8.27864 11.206 8.50955C11.3482 8.74046 11.5738 8.91758 11.8431 9.00983V14.5674C9.89824 12.6981 8.61045 10.3273 8.14926 7.76705C8.12235 7.61993 8.0644 7.47916 7.97873 7.35278C7.89306 7.2264 7.78135 7.11688 7.64997 7.03048C7.51859 6.94407 7.37011 6.88247 7.21302 6.8492C7.05593 6.81592 6.8933 6.81162 6.73441 6.83655C6.57553 6.86147 6.4235 6.91512 6.28701 6.99444C6.15052 7.07377 6.03224 7.17721 5.93892 7.29886C5.8456 7.4205 5.77908 7.55798 5.74314 7.70344C5.7072 7.84889 5.70256 7.99947 5.72947 8.14659C6.44668 12.104 8.83004 15.6365 12.3566 17.9688C12.4069 17.9967 12.4593 18.0212 12.5135 18.042C12.556 18.0652 12.6 18.0857 12.6454 18.1036C12.7824 18.1543 12.9282 18.1816 13.0757 18.1841C13.2563 18.182 13.434 18.1425 13.5959 18.0683C13.6081 18.063 13.6221 18.0655 13.6342 18.0598C13.7427 18.0075 13.842 17.9403 13.9289 17.8606C13.9464 17.8449 13.9581 17.8255 13.9745 17.8089C14.0537 17.7283 14.1198 17.6375 14.1708 17.5393C14.1879 17.5067 14.2034 17.4756 14.2172 17.4413C14.2711 17.316 14.3002 17.1826 14.303 17.0477L14.3036 14.6318C15.064 14.8386 15.7492 15.2333 16.2853 15.7737L18.3078 17.8156C18.4166 17.926 18.5479 18.0154 18.694 18.0787C18.8402 18.142 18.9984 18.178 19.1596 18.1846C19.3208 18.1912 19.4819 18.1683 19.6335 18.1172C19.7851 18.0661 19.9244 17.9879 20.0433 17.8869C20.1623 17.7859 20.2585 17.6642 20.3265 17.5287C20.3946 17.3932 20.4331 17.2466 20.4399 17.0973C20.4467 16.9481 20.4216 16.799 20.3661 16.6587C20.3106 16.5184 20.2257 16.3896 20.1164 16.2798L18.0945 14.2378ZM17.2711 0H9.74148C2.18488 0 0 2.02082 0 9.00768V15.9801C0 22.977 2.18188 25 9.7289 25H17.2585C24.8151 25 27 22.9792 27 15.9923V9.01989C27 2.02303 24.8181 0 17.2711 0ZM24.5455 15.9923C24.5455 21.7196 23.456 22.7273 17.2585 22.7273H9.7289C3.54219 22.7273 2.45455 21.7185 2.45455 15.9801V9.00768C2.45455 3.28036 3.544 2.27273 9.74148 2.27273H17.2711C23.4578 2.27273 24.5455 3.28148 24.5455 9.01989V15.9923Z" fill="white"/>
</svg>
