<svg width="30" height="29" viewBox="0 0 30 29" fill="none" xmlns="http://www.w3.org/2000/svg">
<path d="M15.02 28.6184C14.9225 28.6184 14.8249 28.6184 14.7267 28.6179C12.4175 28.6234 10.2838 28.5664 8.2088 28.4437C6.30641 28.3313 4.56989 27.6926 3.18669 26.597C1.85205 25.5398 0.940634 24.1103 0.477847 22.3487C0.075071 20.8151 0.0537184 19.3096 0.033265 17.8535C0.0184306 16.8087 0.00314669 15.5707 0 14.3118C0.00314669 13.0476 0.0184306 11.8096 0.033265 10.7648C0.0537184 9.30891 0.075071 7.80345 0.477847 6.2696C0.940634 4.50802 1.85205 3.07854 3.18669 2.02133C4.56989 0.925688 6.30641 0.287039 8.20903 0.174593C10.284 0.0521033 12.4182 -0.00510215 14.7323 0.000356396C17.0422 -0.00444712 19.1752 0.0521033 21.2502 0.174593C23.1526 0.287039 24.8892 0.925688 26.2724 2.02133C27.6072 3.07854 28.5184 4.50802 28.9812 6.2696C29.384 7.80323 29.4053 9.30891 29.4258 10.7648C29.4406 11.8096 29.4561 13.0476 29.459 14.3065C29.4561 15.5707 29.4406 16.8087 29.4258 17.8535C29.4172 18.471 28.8922 18.9644 28.2595 18.9561C27.6239 18.9476 27.1159 18.4402 27.1244 17.8229C27.139 16.7843 27.1545 15.5544 27.1575 14.3065C27.1545 13.0639 27.139 11.834 27.1244 10.7954C27.1058 9.46983 27.0864 8.09908 26.7511 6.82244C26.4128 5.53466 25.7624 4.50234 24.8179 3.75408C23.7964 2.94469 22.5489 2.4912 21.1104 2.40626C19.0842 2.28661 16.9984 2.23137 14.7323 2.23596C12.4609 2.23072 10.3748 2.28661 8.34861 2.40626C6.91012 2.4912 5.66291 2.94469 4.64114 3.75387C3.69668 4.50212 3.04622 5.53444 2.70795 6.82244C2.3726 8.09908 2.35327 9.46983 2.33462 10.7954C2.32001 11.834 2.30472 13.0639 2.30158 14.3118C2.30472 15.5544 2.32001 16.7843 2.33462 17.8229C2.35327 19.1485 2.3726 20.5192 2.70795 21.7959C3.04622 23.0836 3.69668 24.116 4.64114 24.8642C5.66291 25.6736 6.91012 26.1271 8.34861 26.212C10.3748 26.3317 12.4613 26.3876 14.7269 26.3821C16.9986 26.3874 19.0842 26.3317 21.1104 26.212C22.5489 26.1271 23.7961 25.6736 24.8179 24.8642C25.4983 24.3251 26.0298 23.6334 26.3978 22.8081C26.6504 22.2417 27.3278 21.9812 27.9111 22.2267C28.4944 22.4721 28.7623 23.1301 28.5099 23.6967C27.994 24.8537 27.2413 25.8295 26.2724 26.597C24.8892 27.6928 23.1526 28.3313 21.2502 28.4437C19.2631 28.5612 17.2218 28.6184 15.02 28.6184ZM21.8643 14.3092C21.8643 10.4565 18.6378 7.32222 14.6719 7.32222C10.7061 7.32222 7.47945 10.4565 7.47945 14.3092C7.47945 18.1618 10.7061 21.2961 14.6719 21.2961C18.6378 21.2961 21.8643 18.1618 21.8643 14.3092ZM19.5627 14.3092C19.5627 16.9288 17.3688 19.0603 14.6719 19.0603C11.9752 19.0603 9.78102 16.9288 9.78102 14.3092C9.78102 11.6895 11.9752 9.55804 14.6719 9.55804C17.3688 9.55804 19.5627 11.6895 19.5627 14.3092ZM22.6698 5.0864C21.7166 5.0864 20.9437 5.83706 20.9437 6.76327C20.9437 7.68947 21.7166 8.44013 22.6698 8.44013C23.6233 8.44013 24.396 7.68947 24.396 6.76327C24.396 5.83706 23.6233 5.0864 22.6698 5.0864Z" fill="white"/>
</svg>
