<svg width="29" height="28" viewBox="0 0 29 28" fill="none" xmlns="http://www.w3.org/2000/svg">
<path d="M22.5658 17.399C22.0066 16.8347 21.3322 16.533 20.6174 16.533C19.9083 16.533 19.2281 16.8291 18.6459 17.3934L16.8243 19.1534C16.6744 19.0751 16.5246 19.0025 16.3804 18.9299C16.1729 18.8293 15.9769 18.7343 15.8098 18.6337C14.1035 17.5834 12.5528 16.2145 11.0656 14.4433C10.345 13.5606 9.86078 12.8175 9.50914 12.0632C9.98183 11.6441 10.4199 11.2083 10.8465 10.7893C11.0079 10.6329 11.1693 10.4708 11.3307 10.3144C12.5413 9.14107 12.5413 7.62135 11.3307 6.44804L9.75702 4.92273C9.57832 4.74953 9.39385 4.57074 9.22092 4.39194C8.87505 4.04554 8.51188 3.68796 8.13719 3.35272C7.57803 2.81635 6.90935 2.5314 6.20608 2.5314C5.50281 2.5314 4.82259 2.81635 4.24614 3.35272C4.24038 3.35831 4.24038 3.35831 4.23461 3.3639L2.27468 5.28031C1.53682 5.99547 1.11601 6.86708 1.02378 7.87836C0.885433 9.50983 1.38118 11.0296 1.76164 12.0241C2.69549 14.4657 4.0905 16.7285 6.17149 19.1534C8.69635 22.0755 11.7342 24.383 15.2045 26.0089C16.5303 26.6179 18.3 27.3386 20.2773 27.4615C20.3983 27.4671 20.5251 27.4727 20.6404 27.4727C21.972 27.4727 23.0903 27.009 23.9665 26.0871C23.9723 26.0759 23.9838 26.0703 23.9896 26.0592C24.2894 25.7072 24.6352 25.3887 24.9984 25.0479C25.2463 24.8188 25.4999 24.5785 25.7478 24.3271C26.3185 23.7516 26.6182 23.0812 26.6182 22.3939C26.6182 21.7011 26.3127 21.0362 25.7305 20.4775L22.5658 17.399ZM24.6295 23.2823C24.6237 23.2823 24.6237 23.2879 24.6295 23.2823C24.4046 23.517 24.1741 23.7293 23.9262 23.9639C23.5515 24.3104 23.171 24.6735 22.8136 25.0814C22.2314 25.6848 21.5454 25.9698 20.6462 25.9698C20.5597 25.9698 20.4675 25.9698 20.381 25.9642C18.669 25.858 17.0779 25.2099 15.8847 24.6568C12.622 23.1259 9.75702 20.9524 7.37627 18.1979C5.41058 15.9016 4.09627 13.7785 3.22583 11.4989C2.68973 10.1077 2.49373 9.02374 2.5802 8.00128C2.63784 7.34758 2.89725 6.80562 3.3757 6.34188L5.3414 4.43664C5.62386 4.17963 5.92362 4.03995 6.21761 4.03995C6.58077 4.03995 6.87476 4.25226 7.05923 4.43105C7.06499 4.43664 7.07075 4.44223 7.07652 4.44782C7.42815 4.76629 7.7625 5.09593 8.11413 5.44793C8.29283 5.62672 8.4773 5.80551 8.66176 5.98989L10.2355 7.5152C10.8465 8.10744 10.8465 8.65499 10.2355 9.24723C10.0683 9.40926 9.90689 9.57129 9.73972 9.72773C9.2555 10.2082 8.79434 10.6552 8.29283 11.091C8.2813 11.1022 8.26977 11.1078 8.26401 11.1189C7.76826 11.5994 7.86049 12.0688 7.96425 12.3872C7.97002 12.404 7.97578 12.4208 7.98155 12.4375C8.39083 13.3985 8.96728 14.3037 9.84348 15.382L9.84925 15.3876C11.4403 17.2872 13.1177 18.7678 14.9681 19.902C15.2045 20.0473 15.4466 20.1646 15.6772 20.2764C15.8847 20.377 16.0807 20.4719 16.2479 20.5725C16.2709 20.5837 16.294 20.6004 16.317 20.6116C16.513 20.7066 16.6975 20.7513 16.8877 20.7513C17.3662 20.7513 17.6659 20.4608 17.7639 20.3658L19.7354 18.455C19.9314 18.265 20.2427 18.0359 20.6058 18.0359C20.9632 18.0359 21.2572 18.2538 21.4359 18.4438C21.4417 18.4494 21.4417 18.4494 21.4474 18.455L24.6237 21.5335C25.2174 22.1034 25.2174 22.6901 24.6295 23.2823Z" fill="white" stroke="white" stroke-width="0.313941"/>
<path d="M15.7404 7.29714C17.2507 7.54298 18.6227 8.23579 19.7179 9.29736C20.8132 10.3589 21.5222 11.6887 21.7816 13.1525C21.845 13.5213 22.1736 13.7783 22.5483 13.7783C22.5944 13.7783 22.6348 13.7727 22.6809 13.7671C23.1075 13.7001 23.3899 13.309 23.3207 12.8955C23.0095 11.1244 22.1448 9.50968 20.8247 8.2302C19.5046 6.95073 17.8387 6.11265 16.0114 5.81094C15.5848 5.74389 15.187 6.01767 15.1121 6.42553C15.0371 6.8334 15.3138 7.23009 15.7404 7.29714Z" fill="white" stroke="white" stroke-width="0.313941"/>
<path d="M28.2608 12.6776C27.7477 9.76106 26.3297 7.10713 24.1507 4.99517C21.9717 2.8832 19.2335 1.50875 16.2245 1.01148C15.8037 0.93885 15.4059 1.21821 15.331 1.62608C15.2618 2.03953 15.5443 2.42505 15.9708 2.49768C18.6571 2.93907 21.107 4.17385 23.0554 6.05674C25.0038 7.94521 26.272 10.3198 26.7274 12.9234C26.7908 13.2922 27.1194 13.5492 27.4941 13.5492C27.5402 13.5492 27.5806 13.5436 27.6267 13.538C28.0475 13.4766 28.3357 13.0854 28.2608 12.6776Z" fill="white" stroke="white" stroke-width="0.313941"/>
</svg>
