<svg width="31" height="30" viewBox="0 0 31 30" fill="none" xmlns="http://www.w3.org/2000/svg">
<path d="M20.144 16.7625C19.7449 16.3399 19.2967 15.9645 18.8086 15.6439C20.7784 14.1526 22.1588 12.0383 22.7144 9.66162C22.7554 9.48987 22.7614 9.31187 22.7319 9.13787C22.7024 8.96387 22.638 8.79729 22.5425 8.64774C22.447 8.49818 22.3223 8.36859 22.1754 8.26642C22.0286 8.16426 21.8626 8.09153 21.6869 8.05243C21.5113 8.01333 21.3295 8.00862 21.152 8.03858C20.9744 8.06855 20.8047 8.13259 20.6526 8.22701C20.5004 8.32144 20.3689 8.4444 20.2654 8.58881C20.162 8.73322 20.0888 8.89623 20.0499 9.06846C19.7911 10.1802 19.2878 11.2232 18.5751 12.1249C17.8623 13.0266 16.9573 13.7652 15.9231 14.2892V9.36772C15.9146 9.26927 15.8946 9.17211 15.8634 9.07816C15.8543 9.00081 15.8385 8.92435 15.8162 8.84962C15.7579 8.72794 15.6811 8.61566 15.5883 8.51661C15.5639 8.48819 15.5516 8.45072 15.5249 8.42443C15.4248 8.33395 15.3114 8.25862 15.1886 8.20093C15.1538 8.18272 15.1278 8.15193 15.0912 8.13671C14.9866 8.10256 14.8781 8.08071 14.7682 8.07162C14.7003 8.05218 14.631 8.03822 14.5608 8.02989L13.6668 8.02718H13.6628C13.3432 8.02568 13.0332 8.13449 12.7874 8.33449C12.5415 8.53449 12.3755 8.81291 12.3184 9.12086C12.2613 9.4288 12.3168 9.7466 12.4752 10.0185C12.6336 10.2903 12.8847 10.4988 13.1845 10.6074V17.1505C11.0194 14.9497 9.58572 12.1585 9.0723 9.14429C9.04234 8.97109 8.97783 8.80536 8.88246 8.65657C8.78708 8.50778 8.66272 8.37884 8.51645 8.27712C8.37019 8.17539 8.2049 8.10287 8.03002 8.06369C7.85513 8.02452 7.67408 8.01946 7.4972 8.0488C7.32032 8.07814 7.15107 8.14131 6.99912 8.2347C6.84717 8.32808 6.71549 8.44987 6.6116 8.59309C6.50771 8.7363 6.43365 8.89816 6.39365 9.0694C6.35364 9.24065 6.34847 9.41794 6.37843 9.59114C7.17687 14.2503 9.83019 18.4091 13.7562 21.155C13.8122 21.1879 13.8706 21.2167 13.9308 21.2413C13.9782 21.2685 14.0272 21.2927 14.0777 21.3138C14.2302 21.3735 14.3925 21.4055 14.5568 21.4085C14.7578 21.4061 14.9557 21.3595 15.1358 21.2722C15.1494 21.2659 15.165 21.2689 15.1785 21.2622C15.2993 21.2006 15.4099 21.1215 15.5066 21.0276C15.526 21.0091 15.539 20.9863 15.5574 20.9667C15.6455 20.8719 15.7191 20.765 15.7759 20.6494C15.7949 20.611 15.8122 20.5744 15.8275 20.534C15.8875 20.3864 15.9199 20.2295 15.9231 20.0706L15.9237 17.2263C16.7703 17.4697 17.533 17.9345 18.1299 18.5707L20.3815 20.9747C20.5026 21.1046 20.6487 21.2098 20.8114 21.2844C20.9742 21.3589 21.1503 21.4013 21.3298 21.4091C21.5092 21.4169 21.6885 21.3899 21.8573 21.3298C22.0261 21.2696 22.1812 21.1775 22.3136 21.0586C22.446 20.9397 22.5531 20.7964 22.6289 20.6369C22.7046 20.4774 22.7475 20.3048 22.7551 20.129C22.7626 19.9533 22.7347 19.7778 22.6729 19.6126C22.6111 19.4475 22.5166 19.2959 22.3949 19.1665L20.144 16.7625ZM19.2273 0H10.8449C2.43235 0 0 2.37915 0 10.6049V18.8137C0 27.0512 2.42902 29.433 10.8309 29.433H19.2133C27.6259 29.433 30.0582 27.0538 30.0582 18.8281V10.6193C30.0582 2.38176 27.6292 0 19.2273 0ZM27.3256 18.8281C27.3256 25.571 26.1128 26.7573 19.2133 26.7573H10.8309C3.9434 26.7573 2.73256 25.5696 2.73256 18.8137V10.6049C2.73256 3.86204 3.94541 2.67573 10.8449 2.67573H19.2273C26.1148 2.67573 27.3256 3.86335 27.3256 10.6193V18.8281Z" fill="white"/>
</svg>
