<svg width="62" height="62" viewBox="0 0 62 62" fill="none" xmlns="http://www.w3.org/2000/svg">
<circle cx="31" cy="31" r="30.2105" fill="white" stroke="url(#paint0_linear_18_128)" stroke-width="1.57895"/>
<g clip-path="url(#clip0_18_128)">
<path d="M44.2747 29.559C40.127 25.5988 34.5467 25.0588 32.499 25.0062V19.7559C32.499 19.3434 32.1615 19.0059 31.749 19.0059C31.5765 19.0059 31.4039 19.0658 31.2689 19.1783L18.5183 29.679C18.1958 29.9415 18.1508 30.414 18.4133 30.7365C18.4433 30.774 18.4808 30.804 18.5183 30.8415L31.269 41.3421C31.5915 41.6046 32.0641 41.5596 32.3266 41.2371C32.4391 41.1021 32.499 40.9371 32.499 40.7571V35.3118C34.5917 34.7417 42.6171 33.2942 47.5899 42.6097C47.7174 42.8572 47.9724 43.0072 48.2499 43.0072C48.4899 43.0072 48.7225 42.8947 48.8725 42.6772C48.9625 42.5497 48.9999 42.3922 48.9999 42.2347C48.9926 36.8119 47.4024 32.5517 44.2747 29.559ZM35.7918 33.4292C33.2941 33.4292 31.539 34.0293 31.494 34.0518C31.194 34.1567 30.999 34.4418 30.999 34.7568V39.1671L20.1759 30.2566L30.999 21.3461V25.7563C30.999 25.9588 31.0815 26.1538 31.2315 26.2963C31.3815 26.4389 31.5766 26.5138 31.7865 26.5064C31.854 26.5064 38.6644 26.2589 43.2547 30.6541C45.5123 32.8143 46.8774 35.7394 47.3349 39.3846C43.7048 34.4943 39.0994 33.4292 35.7918 33.4292Z" fill="url(#paint1_linear_18_128)"/>
<path d="M27.0163 40.217C27.0013 40.2095 26.9938 40.1945 26.9788 40.187L14.9256 30.2565L26.9788 20.3334C27.3088 20.0784 27.3688 19.6059 27.1138 19.2834C26.8587 18.9608 26.3862 18.8933 26.0637 19.1484C26.0488 19.1559 26.0412 19.1709 26.0263 19.1784L13.2755 29.6789C12.953 29.9414 12.908 30.4139 13.1705 30.7365C13.2005 30.7739 13.238 30.804 13.2755 30.8414L26.0262 41.342C26.3412 41.612 26.8137 41.582 27.0838 41.2745C27.3538 40.9596 27.3238 40.487 27.0163 40.217Z" fill="url(#paint2_linear_18_128)"/>
</g>
<defs>
<linearGradient id="paint0_linear_18_128" x1="0.764619" y1="3.22248e-06" x2="74.6468" y2="25.8402" gradientUnits="userSpaceOnUse">
<stop stop-color="#16F09B"/>
<stop offset="1" stop-color="#09D1CA"/>
</linearGradient>
<linearGradient id="paint1_linear_18_128" x1="18.6221" y1="19.0059" x2="52.8763" y2="34.3584" gradientUnits="userSpaceOnUse">
<stop stop-color="#16F09B"/>
<stop offset="1" stop-color="#09D1CA"/>
</linearGradient>
<linearGradient id="paint2_linear_18_128" x1="13.176" y1="18.9927" x2="31.3705" y2="23.023" gradientUnits="userSpaceOnUse">
<stop stop-color="#16F09B"/>
<stop offset="1" stop-color="#09D1CA"/>
</linearGradient>
<clipPath id="clip0_18_128">
<rect width="36" height="36" fill="white" transform="translate(13 13)"/>
</clipPath>
</defs>
</svg>
