<svg width="62" height="62" viewBox="0 0 62 62" fill="none" xmlns="http://www.w3.org/2000/svg">
<circle cx="31" cy="31" r="30.2105" fill="white" stroke="url(#paint0_linear_18_120)" stroke-width="1.57895"/>
<path d="M47.657 23.6868C47.4224 23.4334 47.0881 23.2737 46.7163 23.2737H43.5692V14.5266C43.5692 14.2357 43.3335 14 43.0426 14H19.9574C19.6665 14 19.4308 14.2357 19.4308 14.5266V23.2736H16.2836C15.9119 23.2736 15.5776 23.4334 15.343 23.6868C15.1309 23.9159 15 24.2212 15 24.5573V45.7163C15 46.4242 15.5758 47 16.2836 47H46.7164C47.4242 47 48 46.4242 48 45.7164V24.5573C48 24.2212 47.8691 23.9159 47.657 23.6868ZM19.9574 25.9002C20.2483 25.9002 20.484 25.6645 20.484 25.3736V15.0532H42.516V25.3736C42.516 25.6645 42.7517 25.9002 43.0426 25.9002C43.3335 25.9002 43.5692 25.6645 43.5692 25.3736V24.3268H46.2377L32.0927 39.0584C31.9342 39.2235 31.7237 39.3144 31.5 39.3144C31.2763 39.3144 31.0657 39.2235 30.9073 39.0584L16.7622 24.3268H19.4308V25.3736C19.4308 25.6645 19.6666 25.9002 19.9574 25.9002ZM46.7164 45.9468H16.2836C16.1587 45.9468 16.0532 45.8413 16.0532 45.7164V25.1091L25.6817 35.1369L17.2095 43.9604C17.0082 44.1701 17.0149 44.5035 17.2247 44.705C17.3268 44.803 17.4581 44.8517 17.5893 44.8517C17.7277 44.8517 17.8658 44.7976 17.9692 44.6898L26.4118 35.8971L30.1476 39.7878C30.5066 40.1616 30.9869 40.3676 31.5001 40.3676C32.0133 40.3676 32.4935 40.1616 32.8525 39.7878L36.5883 35.8971L39.8905 39.3361C39.9939 39.4438 40.132 39.498 40.2704 39.498C40.4016 39.498 40.5329 39.4493 40.635 39.3513C40.8448 39.1499 40.8516 38.8165 40.6502 38.6068L37.3184 35.1369L46.9468 25.1091V45.7164C46.9468 45.8413 46.8413 45.9468 46.7164 45.9468Z" fill="url(#paint1_linear_18_120)"/>
<path d="M42.3261 40.3523C42.1247 40.1424 41.7914 40.1358 41.5816 40.3371C41.3718 40.5386 41.365 40.872 41.5664 41.0817L45.0307 44.6897C45.1341 44.7974 45.2722 44.8516 45.4106 44.8516C45.5418 44.8516 45.6731 44.8029 45.7752 44.7049C45.985 44.5034 45.9918 44.1701 45.7904 43.9603L42.3261 40.3523Z" fill="url(#paint2_linear_18_120)"/>
<path d="M25.2788 31.4128H35.2279C36.135 31.4128 36.8731 30.6747 36.8731 29.7676C36.8731 29.4437 36.7789 29.1412 36.6167 28.8864C37.048 28.5894 37.3313 28.0923 37.3313 27.5303C37.3313 27.2064 37.2372 26.904 37.0749 26.6492C37.5063 26.3522 37.7895 25.8551 37.7895 25.2931C37.7895 24.9693 37.6953 24.6668 37.5331 24.4119C37.9645 24.115 38.2477 23.6179 38.2477 23.0559C38.2477 22.1487 37.5096 21.4107 36.6025 21.4107L33.6155 21.4107C34.1141 20.3427 34.383 19.0752 34.383 17.7517C34.383 16.8445 33.6449 16.1064 32.7378 16.1064C31.8306 16.1064 31.0925 16.8445 31.0925 17.7517C31.0925 19.7692 29.4511 21.4107 27.4335 21.4107H25.2789C24.988 21.4107 24.7523 21.6464 24.7523 21.9373V30.8862C24.7522 31.1771 24.988 31.4128 25.2788 31.4128ZM32.1457 17.7517C32.1457 17.4253 32.4112 17.1596 32.7377 17.1596C33.0642 17.1596 33.3297 17.4252 33.3297 17.7517C33.3297 19.2288 32.9578 20.6133 32.2826 21.6499C32.1771 21.8119 32.1688 22.0185 32.2608 22.1883C32.3529 22.3582 32.5306 22.464 32.7238 22.464L36.6024 22.4639C36.9288 22.4639 37.1944 22.7295 37.1944 23.056C37.1944 23.3824 36.9289 23.648 36.6024 23.648H35.2279C34.937 23.648 34.7013 23.8837 34.7013 24.1746C34.7013 24.4655 34.937 24.7012 35.2279 24.7012H36.1443C36.4707 24.7012 36.7363 24.9668 36.7363 25.2933C36.7363 25.6198 36.4708 25.8853 36.1443 25.8853H35.2279C34.937 25.8853 34.7013 26.121 34.7013 26.4119C34.7013 26.7028 34.937 26.9385 35.2279 26.9385H35.6861C36.0125 26.9385 36.2781 27.2041 36.2781 27.5305C36.2781 27.857 36.0126 28.1226 35.6861 28.1226H35.2279C34.937 28.1226 34.7013 28.3583 34.7013 28.6492C34.7013 28.9401 34.937 29.1758 35.2279 29.1758C35.5543 29.1758 35.82 29.4414 35.82 29.7679C35.82 30.0944 35.5543 30.3596 35.2279 30.3596H27.9601V22.4337C30.3113 22.1709 32.1457 20.1719 32.1457 17.7517ZM25.8054 22.4639H26.9069V30.3596H25.8054V22.4639Z" fill="url(#paint3_linear_18_120)"/>
<defs>
<linearGradient id="paint0_linear_18_120" x1="0.764619" y1="3.22248e-06" x2="74.6468" y2="25.8402" gradientUnits="userSpaceOnUse">
<stop stop-color="#16F09B"/>
<stop offset="1" stop-color="#09D1CA"/>
</linearGradient>
<linearGradient id="paint1_linear_18_120" x1="15.407" y1="14" x2="54.7314" y2="27.7537" gradientUnits="userSpaceOnUse">
<stop stop-color="#16F09B"/>
<stop offset="1" stop-color="#09D1CA"/>
</linearGradient>
<linearGradient id="paint2_linear_18_120" x1="41.4754" y1="40.1904" x2="46.8945" y2="42.0273" gradientUnits="userSpaceOnUse">
<stop stop-color="#16F09B"/>
<stop offset="1" stop-color="#09D1CA"/>
</linearGradient>
<linearGradient id="paint3_linear_18_120" x1="24.9188" y1="16.1064" x2="41.4004" y2="21.1889" gradientUnits="userSpaceOnUse">
<stop stop-color="#16F09B"/>
<stop offset="1" stop-color="#09D1CA"/>
</linearGradient>
</defs>
</svg>
