<svg width="62" height="62" viewBox="0 0 62 62" fill="none" xmlns="http://www.w3.org/2000/svg">
<circle cx="31" cy="31" r="30.2105" fill="white" stroke="url(#paint0_linear_18_173)" stroke-width="1.57895"/>
<g clip-path="url(#clip0_18_173)">
<path d="M31.5349 30.9685C30.9072 30.9685 30.3983 31.4774 30.3983 32.1052C30.3982 32.5591 30.6649 32.9497 31.0496 33.1319V34.5137C31.0496 34.7817 31.2668 34.999 31.5349 34.999C31.8029 34.999 32.0202 34.7818 32.0202 34.5137V33.1319C32.4049 32.9497 32.6716 32.5591 32.6716 32.1052C32.6716 31.4774 32.1627 30.9685 31.5349 30.9685Z" fill="url(#paint1_linear_18_173)"/>
<path d="M43.6462 22.9025C41.557 22.0758 39.8988 20.5531 38.9769 18.6152C38.7262 18.0882 38.1844 17.7476 37.5963 17.7476H25.4348C24.8468 17.7476 24.3049 18.0881 24.0542 18.6152C23.1325 20.5531 21.4742 22.0758 19.3849 22.9025C18.7989 23.1344 18.4203 23.693 18.4203 24.3257V27.2836C18.4203 31.161 19.551 34.9914 21.6902 38.3606C23.8501 41.7628 26.98 44.6061 30.7412 46.583L30.8025 46.6152C31.0258 46.7326 31.2707 46.7912 31.5156 46.7912C31.7604 46.7912 32.0054 46.7326 32.2286 46.6153L32.2901 46.583C36.0513 44.606 39.1811 41.7628 41.3412 38.3606C43.4803 34.9913 44.611 31.161 44.611 27.2836V24.3257C44.611 23.6929 44.2322 23.1344 43.6462 22.9025ZM43.6404 27.2836C43.6404 30.9765 42.562 34.6269 40.5217 37.8405C38.4525 41.0997 35.4498 43.8257 31.8386 45.7239L31.7772 45.7561C31.6134 45.8423 31.4178 45.8422 31.254 45.7561L31.1927 45.7239C27.5814 43.8258 24.5787 41.0997 22.5094 37.8405C20.4692 34.627 19.3908 30.9765 19.3908 27.2836V24.3257C19.3908 24.0938 19.5287 23.8894 19.742 23.805C22.0604 22.8877 23.9031 21.1926 24.9307 19.0321C25.0213 18.8414 25.2192 18.7182 25.4347 18.7182H37.5964C37.8119 18.7182 38.0097 18.8414 38.1004 19.0321C39.1281 21.1926 40.9708 22.8877 43.2892 23.8051C43.5025 23.8895 43.6404 24.0939 43.6404 24.3257V27.2836Z" fill="url(#paint2_linear_18_173)"/>
<path d="M46.0802 31.8894C45.8188 31.8302 45.5589 31.9942 45.4999 32.2557C44.0219 38.7945 39.5204 44.4651 33.1496 47.8137L31.6691 48.5918C31.5735 48.642 31.4593 48.642 31.3638 48.5918L29.8833 47.8137C23.5025 44.4599 18.9987 38.7794 17.5269 32.2289C17.4682 31.9674 17.2085 31.803 16.9471 31.8618C16.6856 31.9205 16.5212 32.1801 16.58 32.4416C18.1142 39.2703 22.7985 45.1864 29.4317 48.6727L30.9122 49.4509C31.1014 49.5503 31.3089 49.6 31.5164 49.6C31.7239 49.6 31.9315 49.5503 32.1206 49.4508L33.6011 48.6727C40.2239 45.1917 44.9059 39.286 46.4466 32.4697C46.5056 32.2082 46.3416 31.9484 46.0802 31.8894Z" fill="url(#paint3_linear_18_173)"/>
<path d="M45.8445 21.053C43.2531 20.7796 41.2155 18.9607 40.8893 16.6298C40.7992 15.9857 40.2457 15.5 39.6018 15.5H23.432C22.7881 15.5 22.2346 15.9857 22.1445 16.6298C21.8183 18.9608 19.7807 20.7796 17.1893 21.053C16.5327 21.1223 16.0375 21.677 16.0375 22.3433V27.5545C16.0375 28.3117 16.0768 29.0773 16.1542 29.8301C16.1799 30.0798 16.3906 30.2658 16.6364 30.2658C16.6529 30.2658 16.6697 30.2649 16.6866 30.2632C16.9532 30.2358 17.1471 29.9974 17.1197 29.7308C17.0457 29.0109 17.0081 28.2787 17.0081 27.5545V22.3433C17.0081 22.1778 17.1325 22.0349 17.2912 22.0182C20.3266 21.698 22.7176 19.5375 23.1058 16.7642C23.1296 16.5941 23.2667 16.4706 23.432 16.4706H39.6017C39.7669 16.4706 39.9042 16.5941 39.928 16.7642C40.316 19.5375 42.7071 21.6979 45.7425 22.0182C45.9012 22.0349 46.0256 22.1778 46.0256 22.3433V27.5545C46.0256 28.2711 45.9888 28.9957 45.9163 29.7084C45.8892 29.975 46.0834 30.2132 46.35 30.2403C46.6165 30.2676 46.8548 30.0732 46.882 29.8065C46.9578 29.0614 46.9961 28.3038 46.9961 27.5545V22.3433C46.9962 21.677 46.5011 21.1223 45.8445 21.053Z" fill="url(#paint4_linear_18_173)"/>
<path d="M37.0767 27.6124H36.2787V25.2959C36.2787 22.6811 34.1515 20.554 31.5368 20.554C28.9221 20.554 26.7948 22.6811 26.7948 25.2959V27.6124H25.9969C25.1459 27.6124 24.4535 28.3048 24.4535 29.1558V36.1043C24.4535 36.9553 25.1459 37.6477 25.9969 37.6477H37.0767C37.9277 37.6477 38.6201 36.9553 38.6201 36.1043V29.1558C38.6201 28.3048 37.9277 27.6124 37.0767 27.6124ZM27.7655 25.2959C27.7655 23.2164 29.4573 21.5246 31.5368 21.5246C33.6164 21.5246 35.3082 23.2164 35.3082 25.2959V27.6125H27.7655V25.2959ZM37.6495 36.1043C37.6495 36.4201 37.3925 36.6771 37.0767 36.6771H25.9969C25.681 36.6771 25.4241 36.4201 25.4241 36.1043V29.1558C25.4241 28.84 25.6811 28.583 25.9969 28.583H37.0767C37.3925 28.583 37.6495 28.8399 37.6495 29.1558V36.1043Z" fill="url(#paint5_linear_18_173)"/>
</g>
<defs>
<linearGradient id="paint0_linear_18_173" x1="0.764619" y1="3.22248e-06" x2="74.6468" y2="25.8402" gradientUnits="userSpaceOnUse">
<stop stop-color="#16F09B"/>
<stop offset="1" stop-color="#09D1CA"/>
</linearGradient>
<linearGradient id="paint1_linear_18_173" x1="30.4263" y1="30.9685" x2="33.3529" y2="31.5458" gradientUnits="userSpaceOnUse">
<stop stop-color="#16F09B"/>
<stop offset="1" stop-color="#09D1CA"/>
</linearGradient>
<linearGradient id="paint2_linear_18_173" x1="18.7433" y1="17.7476" x2="50.602" y2="27.7956" gradientUnits="userSpaceOnUse">
<stop stop-color="#16F09B"/>
<stop offset="1" stop-color="#09D1CA"/>
</linearGradient>
<linearGradient id="paint3_linear_18_173" x1="16.9367" y1="31.8499" x2="46.6173" y2="49.3307" gradientUnits="userSpaceOnUse">
<stop stop-color="#16F09B"/>
<stop offset="1" stop-color="#09D1CA"/>
</linearGradient>
<linearGradient id="paint4_linear_18_173" x1="16.4193" y1="15.5" x2="43.3451" y2="35.2447" gradientUnits="userSpaceOnUse">
<stop stop-color="#16F09B"/>
<stop offset="1" stop-color="#09D1CA"/>
</linearGradient>
<linearGradient id="paint5_linear_18_173" x1="24.6282" y1="20.554" x2="42.1064" y2="25.6202" gradientUnits="userSpaceOnUse">
<stop stop-color="#16F09B"/>
<stop offset="1" stop-color="#09D1CA"/>
</linearGradient>
<clipPath id="clip0_18_173">
<rect width="34.1" height="34.1" fill="white" transform="translate(14.4667 15.5)"/>
</clipPath>
</defs>
</svg>
