<svg width="62" height="62" viewBox="0 0 62 62" fill="none" xmlns="http://www.w3.org/2000/svg">
<circle cx="31" cy="31" r="30.2105" fill="white" stroke="url(#paint0_linear_115_1240)" stroke-width="1.57895"/>
<g clip-path="url(#clip0_115_1240)">
<path d="M25.6705 15.6394H18.9577C18.5768 15.6394 18.268 15.9483 18.268 16.3292V23.0419C18.268 23.4228 18.5768 23.7317 18.9577 23.7317H25.6705C26.0514 23.7317 26.3603 23.4228 26.3603 23.0419V16.3292C26.3603 15.9482 26.0514 15.6394 25.6705 15.6394ZM24.9807 22.3521H19.6475V17.0189H24.9807V22.3521Z" fill="url(#paint1_linear_115_1240)"/>
<path d="M44.8322 18.8137C45.2131 18.8137 45.522 18.5048 45.522 18.1239V16.3292C45.522 15.9483 45.2131 15.6394 44.8322 15.6394H38.1195C37.7386 15.6394 37.4297 15.9483 37.4297 16.3292V23.0419C37.4297 23.4228 37.7386 23.7317 38.1195 23.7317H44.8322C45.2131 23.7317 45.522 23.4228 45.522 23.0419V20.3771C45.522 19.9962 45.2131 19.6874 44.8322 19.6874C44.4513 19.6874 44.1424 19.9962 44.1424 20.3771V22.3522H38.8092V17.019H44.1424V18.124C44.1424 18.5049 44.4513 18.8137 44.8322 18.8137Z" fill="url(#paint2_linear_115_1240)"/>
<path d="M44.8322 34.8013H38.1195C37.7386 34.8013 37.4297 35.1101 37.4297 35.491V42.2038C37.4297 42.5847 37.7386 42.8936 38.1195 42.8936H44.8322C45.2131 42.8936 45.522 42.5847 45.522 42.2038V35.491C45.522 35.1101 45.2131 34.8013 44.8322 34.8013ZM44.1424 41.514H38.8092V36.1808H44.1424V41.514Z" fill="url(#paint3_linear_115_1240)"/>
<path d="M48.3102 12.1609H15.4791C15.0982 12.1609 14.7893 12.4698 14.7893 12.8507V39.8969C14.7893 40.2779 15.0982 40.5867 15.4791 40.5867C15.86 40.5867 16.1689 40.2779 16.1689 39.8969V13.5404H47.6204V44.992H41.5948C41.2139 44.992 40.905 45.3009 40.905 45.6818C40.905 46.0627 41.2139 46.3716 41.5948 46.3716H48.3102C48.6911 46.3716 49 46.0627 49 45.6818V12.8507C49 12.4698 48.6911 12.1609 48.3102 12.1609Z" fill="url(#paint4_linear_115_1240)"/>
<path d="M39.2956 44.9922H20.6183C20.2374 44.9922 19.9286 45.301 19.9286 45.682C19.9286 46.0629 20.2374 46.3717 20.6183 46.3717H39.2956C39.6765 46.3717 39.9854 46.0629 39.9854 45.682C39.9854 45.301 39.6765 44.9922 39.2956 44.9922Z" fill="url(#paint5_linear_115_1240)"/>
<path d="M31.619 20.385H28.1704C27.7895 20.385 27.4806 20.6939 27.4806 21.0748C27.4806 21.4557 27.7895 21.7646 28.1704 21.7646H31.619C31.9999 21.7646 32.3088 21.4557 32.3088 21.0748C32.3088 20.6938 31.9999 20.385 31.619 20.385Z" fill="url(#paint6_linear_115_1240)"/>
<path d="M42.3789 29.6274H38.8093V26.1788C38.8093 25.7979 38.5005 25.489 38.1195 25.489C37.7386 25.489 37.4298 25.7979 37.4298 26.1788V32.5243C37.4298 32.9052 37.7386 33.2141 38.1195 33.2141C38.5005 33.2141 38.8093 32.9052 38.8093 32.5243V31.0069H42.3789C42.7598 31.0069 43.0687 30.6981 43.0687 30.3172C43.0687 29.9362 42.7598 29.6274 42.3789 29.6274Z" fill="url(#paint7_linear_115_1240)"/>
<path d="M35.6196 15.6394H28.1704C27.7895 15.6394 27.4807 15.9483 27.4807 16.3292C27.4807 16.7101 27.7895 17.019 28.1704 17.019H33.5503V23.5578C33.5503 23.9387 33.859 24.2475 34.24 24.2475C34.6209 24.2475 34.9298 23.9387 34.9298 23.5578V17.019H35.6196C36.0005 17.019 36.3094 16.7101 36.3094 16.3292C36.3094 15.9482 36.0005 15.6394 35.6196 15.6394Z" fill="url(#paint8_linear_115_1240)"/>
<path d="M33.1131 27.7251C31.3503 25.9623 29.0064 24.9915 26.5133 24.9915C24.0203 24.9915 21.6765 25.9623 19.9136 27.7251C18.1507 29.4879 17.1799 31.8318 17.1799 34.3249C17.1799 36.8179 18.1507 39.1617 19.9136 40.9246C20.1268 41.1377 20.3485 41.339 20.5779 41.5287L14.9085 47.1971C14.5591 47.5465 13.9905 47.5466 13.6409 47.1971C13.2914 46.8476 13.2914 46.279 13.6409 45.9294L18.3449 41.2245C18.6143 40.9551 18.6142 40.5184 18.3449 40.249C18.0754 39.9796 17.6387 39.9796 17.3694 40.2491L12.6655 44.954C11.7781 45.8413 11.7781 47.2852 12.6655 48.1725C13.0953 48.6024 13.6669 48.8391 14.2747 48.8391C14.2749 48.8391 14.2751 48.8391 14.2754 48.8391C14.8831 48.8389 15.4544 48.6022 15.8841 48.1725L21.7199 42.3376C23.1534 43.1986 24.798 43.6582 26.5134 43.6582C29.0064 43.6582 31.3502 42.6874 33.1131 40.9246C34.876 39.1617 35.8468 36.8179 35.8468 34.3249C35.8468 31.8318 34.8759 29.488 33.1131 27.7251ZM32.1375 39.949C30.6353 41.4513 28.6379 42.2787 26.5133 42.2787C24.3888 42.2787 22.3914 41.4513 20.8891 39.949C19.3868 38.4467 18.5594 36.4494 18.5594 34.3248C18.5594 32.2002 19.3868 30.2028 20.8891 28.7006C22.3914 27.1983 24.3888 26.3709 26.5133 26.3709C28.6379 26.3709 30.6353 27.1982 32.1375 28.7006C33.6397 30.2029 34.4672 32.2002 34.4672 34.3248C34.4672 36.4493 33.6399 38.4467 32.1375 39.949Z" fill="url(#paint9_linear_115_1240)"/>
<path d="M31.3229 29.5151C28.671 26.8632 24.3558 26.8631 21.7038 29.5151C20.4191 30.7998 19.7116 32.5078 19.7116 34.3246C19.7116 36.1414 20.4192 37.8495 21.7038 39.1341C22.9884 40.4188 24.6965 41.1263 26.5133 41.1263C28.3301 41.1263 30.0382 40.4188 31.3228 39.1341C33.9748 36.4822 33.9748 32.1671 31.3229 29.5151ZM30.3474 38.1586C29.3232 39.1827 27.9616 39.7468 26.5133 39.7468C25.0649 39.7468 23.7033 39.1827 22.6793 38.1586C21.6552 37.1346 21.0912 35.7729 21.0912 34.3247C21.0912 32.8764 21.6552 31.5148 22.6793 30.4905C23.7364 29.4334 25.1247 28.905 26.5133 28.905C27.9016 28.905 29.2904 29.4336 30.3474 30.4905C32.4614 32.6046 32.4614 36.0446 30.3474 38.1586Z" fill="url(#paint10_linear_115_1240)"/>
<path d="M26.5134 30.2864C26.1325 30.2864 25.8236 30.5952 25.8236 30.9762C25.8236 31.3571 26.1325 31.6659 26.5134 31.6659C27.9795 31.6659 29.1722 32.8587 29.1722 34.3247C29.1722 34.7056 29.4811 35.0145 29.862 35.0145C30.2429 35.0145 30.5517 34.7056 30.5517 34.3247C30.5517 32.098 28.7401 30.2864 26.5134 30.2864Z" fill="url(#paint11_linear_115_1240)"/>
</g>
<defs>
<linearGradient id="paint0_linear_115_1240" x1="0.764619" y1="3.22248e-06" x2="74.6468" y2="25.8402" gradientUnits="userSpaceOnUse">
<stop stop-color="#16F09B"/>
<stop offset="1" stop-color="#09D1CA"/>
</linearGradient>
<linearGradient id="paint1_linear_115_1240" x1="18.3678" y1="15.6394" x2="28.0109" y2="19.0121" gradientUnits="userSpaceOnUse">
<stop stop-color="#16F09B"/>
<stop offset="1" stop-color="#09D1CA"/>
</linearGradient>
<linearGradient id="paint2_linear_115_1240" x1="37.5295" y1="15.6394" x2="47.1727" y2="19.0121" gradientUnits="userSpaceOnUse">
<stop stop-color="#16F09B"/>
<stop offset="1" stop-color="#09D1CA"/>
</linearGradient>
<linearGradient id="paint3_linear_115_1240" x1="37.5295" y1="34.8013" x2="47.1727" y2="38.174" gradientUnits="userSpaceOnUse">
<stop stop-color="#16F09B"/>
<stop offset="1" stop-color="#09D1CA"/>
</linearGradient>
<linearGradient id="paint4_linear_115_1240" x1="15.2112" y1="12.1609" x2="55.9783" y2="26.4192" gradientUnits="userSpaceOnUse">
<stop stop-color="#16F09B"/>
<stop offset="1" stop-color="#09D1CA"/>
</linearGradient>
<linearGradient id="paint5_linear_115_1240" x1="20.1759" y1="44.9922" x2="21.1747" y2="50.0711" gradientUnits="userSpaceOnUse">
<stop stop-color="#16F09B"/>
<stop offset="1" stop-color="#09D1CA"/>
</linearGradient>
<linearGradient id="paint6_linear_115_1240" x1="27.5401" y1="20.385" x2="30.1248" y2="23.5488" gradientUnits="userSpaceOnUse">
<stop stop-color="#16F09B"/>
<stop offset="1" stop-color="#09D1CA"/>
</linearGradient>
<linearGradient id="paint7_linear_115_1240" x1="37.4993" y1="25.489" x2="44.5794" y2="27.2965" gradientUnits="userSpaceOnUse">
<stop stop-color="#16F09B"/>
<stop offset="1" stop-color="#09D1CA"/>
</linearGradient>
<linearGradient id="paint8_linear_115_1240" x1="27.5895" y1="15.6394" x2="38.0511" y2="19.3921" gradientUnits="userSpaceOnUse">
<stop stop-color="#16F09B"/>
<stop offset="1" stop-color="#09D1CA"/>
</linearGradient>
<linearGradient id="paint9_linear_115_1240" x1="12.2941" y1="24.9915" x2="40.7113" y2="34.93" gradientUnits="userSpaceOnUse">
<stop stop-color="#16F09B"/>
<stop offset="1" stop-color="#09D1CA"/>
</linearGradient>
<linearGradient id="paint10_linear_115_1240" x1="19.8793" y1="27.5261" x2="36.086" y2="33.1944" gradientUnits="userSpaceOnUse">
<stop stop-color="#16F09B"/>
<stop offset="1" stop-color="#09D1CA"/>
</linearGradient>
<linearGradient id="paint11_linear_115_1240" x1="25.8819" y1="30.2864" x2="31.5162" y2="32.257" gradientUnits="userSpaceOnUse">
<stop stop-color="#16F09B"/>
<stop offset="1" stop-color="#09D1CA"/>
</linearGradient>
<clipPath id="clip0_115_1240">
<rect width="37" height="37" fill="white" transform="translate(12 12)"/>
</clipPath>
</defs>
</svg>
