<svg width="62" height="62" viewBox="0 0 62 62" fill="none" xmlns="http://www.w3.org/2000/svg">
<circle cx="31" cy="31" r="30.2105" fill="white" stroke="url(#paint0_linear_115_1226)" stroke-width="1.57895"/>
<path d="M47.0161 14H15.9839C14.3386 14 13 15.3386 13 16.9839V38.4677C13 40.1131 14.3386 41.4516 15.9839 41.4516H23.7419V43.8387H21.3548V45.0323H28.5161V48.0161C28.5161 49.6614 29.8547 51 31.5 51C33.1453 51 34.4839 49.6614 34.4839 48.0161V45.0323H41.6452V43.8387H39.2581V41.4516H47.0161C48.6614 41.4516 50 40.1131 50 38.4677V16.9839C50 15.3386 48.6614 14 47.0161 14ZM28.5161 43.8387H24.9355V41.4516H28.5161V43.8387ZM33.2903 48.0161C33.2903 49.0032 32.4871 49.8065 31.5 49.8065C30.5129 49.8065 29.7097 49.0032 29.7097 48.0161V37.871H33.2903V48.0161ZM33.2903 36.6774H29.7097V35.3096C30.2903 35.4206 30.8877 35.4839 31.5 35.4839C32.1123 35.4839 32.7097 35.4206 33.2903 35.3096V36.6774ZM31.5 34.2903C26.8929 34.2903 23.1452 30.5426 23.1452 25.9355C23.1452 21.3284 26.8929 17.5806 31.5 17.5806C36.1071 17.5806 39.8548 21.3284 39.8548 25.9355C39.8548 30.5426 36.1071 34.2903 31.5 34.2903ZM38.0645 43.8387H34.4839V41.4516H38.0645V43.8387ZM48.8065 36.6774H36.871V37.871H48.8065V38.4677C48.8065 39.4548 48.0032 40.2581 47.0161 40.2581H34.4839V37.871H35.6774V36.6774H34.4839V34.9999C38.2907 33.7431 41.0484 30.1577 41.0484 25.9355C41.0484 20.6707 36.7647 16.3871 31.5 16.3871C26.2353 16.3871 21.9516 20.6707 21.9516 25.9355C21.9516 30.1577 24.7093 33.7431 28.5161 34.9999V36.6774H27.3226V37.871H28.5161V40.2581H15.9839C14.9968 40.2581 14.1935 39.4548 14.1935 38.4677V37.871H26.129V36.6774H14.1935V16.9839C14.1935 15.9968 14.9968 15.1935 15.9839 15.1935H47.0161C48.0032 15.1935 48.8065 15.9968 48.8065 16.9839V36.6774Z" fill="url(#paint1_linear_115_1226)"/>
<path d="M31.5 19.3708C27.8806 19.3708 24.9355 22.3159 24.9355 25.9354C24.9355 29.5548 27.8806 32.4999 31.5 32.4999C35.1194 32.4999 38.0645 29.5548 38.0645 25.9354C38.0645 22.3159 35.1194 19.3708 31.5 19.3708ZM31.5 31.3063C28.5388 31.3063 26.129 28.8966 26.129 25.9354C26.129 22.9742 28.5388 20.5644 31.5 20.5644C34.4612 20.5644 36.871 22.9742 36.871 25.9354C36.871 28.8966 34.4612 31.3063 31.5 31.3063Z" fill="url(#paint2_linear_115_1226)"/>
<path d="M43.4355 25.3386H42.2419V26.5322H43.4355V25.3386Z" fill="url(#paint3_linear_115_1226)"/>
<path d="M45.8226 25.3386H44.629V26.5322H45.8226V25.3386Z" fill="url(#paint4_linear_115_1226)"/>
<path d="M18.371 25.3386H17.1774V26.5322H18.371V25.3386Z" fill="url(#paint5_linear_115_1226)"/>
<path d="M20.7581 25.3386H19.5645V26.5322H20.7581V25.3386Z" fill="url(#paint6_linear_115_1226)"/>
<defs>
<linearGradient id="paint0_linear_115_1226" x1="0.764619" y1="3.22248e-06" x2="74.6468" y2="25.8402" gradientUnits="userSpaceOnUse">
<stop stop-color="#16F09B"/>
<stop offset="1" stop-color="#09D1CA"/>
</linearGradient>
<linearGradient id="paint1_linear_115_1226" x1="13.4563" y1="14" x2="57.5473" y2="29.4208" gradientUnits="userSpaceOnUse">
<stop stop-color="#16F09B"/>
<stop offset="1" stop-color="#09D1CA"/>
</linearGradient>
<linearGradient id="paint2_linear_115_1226" x1="25.0974" y1="19.3709" x2="40.7426" y2="24.8427" gradientUnits="userSpaceOnUse">
<stop stop-color="#16F09B"/>
<stop offset="1" stop-color="#09D1CA"/>
</linearGradient>
<linearGradient id="paint3_linear_115_1226" x1="42.2567" y1="25.3386" x2="43.6789" y2="25.8361" gradientUnits="userSpaceOnUse">
<stop stop-color="#16F09B"/>
<stop offset="1" stop-color="#09D1CA"/>
</linearGradient>
<linearGradient id="paint4_linear_115_1226" x1="44.6437" y1="25.3386" x2="46.066" y2="25.8361" gradientUnits="userSpaceOnUse">
<stop stop-color="#16F09B"/>
<stop offset="1" stop-color="#09D1CA"/>
</linearGradient>
<linearGradient id="paint5_linear_115_1226" x1="17.1921" y1="25.3386" x2="18.6144" y2="25.8361" gradientUnits="userSpaceOnUse">
<stop stop-color="#16F09B"/>
<stop offset="1" stop-color="#09D1CA"/>
</linearGradient>
<linearGradient id="paint6_linear_115_1226" x1="19.5792" y1="25.3386" x2="21.0015" y2="25.8361" gradientUnits="userSpaceOnUse">
<stop stop-color="#16F09B"/>
<stop offset="1" stop-color="#09D1CA"/>
</linearGradient>
</defs>
</svg>
